<?xml version="1.0" encoding="UTF-8"?>
<svg version="1.1" xmlns="http://www.w3.org/2000/svg" width="1024" height="1024">
<path d="M0 0 C0 1.98 0 3.96 0 6 C0.66 6 1.32 6 2 6 C2 7.32 2 8.64 2 10 C2.66 10 3.32 10 4 10 C4 9.01 4 8.02 4 7 C4.66 7 5.32 7 6 7 C6 5.68 6 4.36 6 3 C6.66 3 7.32 3 8 3 C8 1.68 8 0.36 8 -1 C10.97 -0.505 10.97 -0.505 14 0 C14 0.66 14 1.32 14 2 C15.65 2.33 17.3 2.66 19 3 C19.1875 5.8125 19.1875 5.8125 19 9 C18.02162196 10.02116425 17.01779986 11.01812249 16 12 C13.41243595 16.13015031 11.07605531 20.13664499 10.875 25.0625 C12.8059712 30.10448035 15.15415088 35.15415088 19 39 C19.71927295 41.31765729 20.3909893 43.65095874 21 46 C21.66 46 22.32 46 23 46 C23 47.65 23 49.3 23 51 C23.66 51 24.32 51 25 51 C25 51.66 25 52.32 25 53 C25.66 53 26.32 53 27 53 C27 54.98 27 56.96 27 59 C28.32 59.33 29.64 59.66 31 60 C31 61.65 31 63.3 31 65 C31.66 65 32.32 65 33 65 C35 67 35 67 35.125 70.125 C35.08375 71.07375 35.0425 72.0225 35 73 C35.66 73 36.32 73 37 73 C37 73.66 37 74.32 37 75 C37.66 75 38.32 75 39 75 C39 76.65 39 78.3 39 80 C39.66 80 40.32 80 41 80 C41 80.99 41 81.98 41 83 C41.66 83 42.32 83 43 83 C44.4606285 85.64738916 45 86.89448334 45 90 C45.66 90 46.32 90 47 90 C48.81242323 94.0188515 50.33501617 97.61110675 51 102 C51.66 102 52.32 102 53 102 C53.56267578 103.03447266 53.56267578 103.03447266 54.13671875 104.08984375 C54.64847656 105.02957031 55.16023437 105.96929688 55.6875 106.9375 C56.23019531 107.93523437 56.77289062 108.93296875 57.33203125 109.9609375 C59.22170475 113.40394917 61.1593557 116.81799907 63.1171875 120.22265625 C64 122 64 122 64 124 C64.66 124 65.32 124 66 124 C66 125.32 66 126.64 66 128 C66.66 128 67.32 128 68 128 C68 128.99 68 129.98 68 131 C68.66 131 69.32 131 70 131 C70 132.32 70 133.64 70 135 C70.66 135 71.32 135 72 135 C72 136.32 72 137.64 72 139 C72.66 139 73.32 139 74 139 C74.66 140.98 75.32 142.96 76 145 C76.66 145 77.32 145 78 145 C79.25664978 147.90600261 80 149.79604584 80 153 C80.66 153 81.32 153 82 153 C82 153.99 82 154.98 82 156 C82.66 156 83.32 156 84 156 C84 157.32 84 158.64 84 160 C84.66 160 85.32 160 86 160 C86 160.99 86 161.98 86 163 C86.66 163 87.32 163 88 163 C88 164.32 88 165.64 88 167 C88.66 167 89.32 167 90 167 C91.4606285 169.64738916 92 170.89448334 92 174 C92.66 174 93.32 174 94 174 C96.31 178.62 98.62 183.24 101 188 C103.4263724 187.07033509 103.4263724 187.07033509 104.3125 183.5 C106 180 106 180 108.5 179 C111 179 111 179 114 180 C114 180.66 114 181.32 114 182 C115.65 182.33 117.3 182.66 119 183 C118.49396008 185.16874252 118.00016187 186.99967627 117 189 C116.34 189 115.68 189 115 189 C115 190.98 115 192.96 115 195 C114.34 195 113.68 195 113 195 C112.01 198.96 112.01 198.96 111 203 C110.34 203 109.68 203 109 203 C108.67 204.32 108.34 205.64 108 207 C79.29 207 50.58 207 21 207 C20.01 204.525 20.01 204.525 19 202 C18.67 202 18.34 202 18 202 C18 200.35 18 198.7 18 197 C17.34 197 16.68 197 16 197 C15.505 194.525 15.505 194.525 15 192 C14.67 192 14.34 192 14 192 C14 190.02 14 188.04 14 186 C13.34 186 12.68 186 12 186 C12 184.68 12 183.36 12 182 C11.34 182 10.68 182 10 182 C10 180.02 10 178.04 10 176 C9.34 176 8.68 176 8 176 C6.39644899 172.49223216 5.77963136 169.85645121 6 166 C5.34 166 4.68 166 4 166 C4 164.68 4 163.36 4 162 C3.34 162 2.68 162 2 162 C2 163.32 2 164.64 2 166 C1.34 166 0.68 166 0 166 C0 167.98 0 169.96 0 172 C-0.66 172 -1.32 172 -2 172 C-2 173.32 -2 174.64 -2 176 C-2.66 176 -3.32 176 -4 176 C-3.95875 176.9075 -3.9175 177.815 -3.875 178.75 C-3.99531556 181.8782046 -4.3914708 183.38614006 -6 186 C-6.66 186 -7.32 186 -8 186 C-8 187.98 -8 189.96 -8 192 C-8.33 192 -8.66 192 -9 192 C-9.12375 192.7425 -9.2475 193.485 -9.375 194.25 C-9.95486701 196.80141485 -10.73708739 198.7267573 -12 201 C-12.66 201 -13.32 201 -14 201 C-14.495 203.97 -14.495 203.97 -15 207 C-43.71 207 -72.42 207 -102 207 C-102.33 205.68 -102.66 204.36 -103 203 C-103.66 203 -104.32 203 -105 203 C-105.28875 202.05125 -105.5775 201.1025 -105.875 200.125 C-106.76825109 196.94788422 -106.76825109 196.94788422 -109 195 C-109.125 191.875 -109.125 191.875 -109 189 C-109.66 189 -110.32 189 -111 189 C-111 186.69 -111 184.38 -111 182 C-109.68 182 -108.36 182 -107 182 C-107 181.34 -107 180.68 -107 180 C-105.02 179.67 -103.04 179.34 -101 179 C-100.67 180.32 -100.34 181.64 -100 183 C-99.34 183 -98.68 183 -98 183 C-96.25372522 185.61941217 -95.61277612 187.03824877 -95 190 C-94.690625 188.824375 -94.690625 188.824375 -94.375 187.625 C-92.50725643 182.70094876 -89.76641059 178.46446313 -87 174 C-83.76249146 168.80743379 -83.76249146 168.80743379 -82 163 C-81.34 163 -80.68 163 -80 163 C-80 162.01 -80 161.02 -80 160 C-79.34 160 -78.68 160 -78 160 C-77.855625 159.401875 -77.71125 158.80375 -77.5625 158.1875 C-77.1127561 156.43849596 -76.57107659 154.71322977 -76 153 C-75.34 153 -74.68 153 -74 153 C-74 151.68 -74 150.36 -74 149 C-73.34 149 -72.68 149 -72 149 C-72 147.68 -72 146.36 -72 145 C-71.34 145 -70.68 145 -70 145 C-69.01 142.03 -69.01 142.03 -68 139 C-67.34 139 -66.68 139 -66 139 C-66 137.68 -66 136.36 -66 135 C-65.34 135 -64.68 135 -64 135 C-64 133.68 -64 132.36 -64 131 C-63.34 131 -62.68 131 -62 131 C-62 130.01 -62 129.02 -62 128 C-61.34 128 -60.68 128 -60 128 C-60 126.68 -60 125.36 -60 124 C-59.34 124 -58.68 124 -58 124 C-57.690625 123.05125 -57.38125 122.1025 -57.0625 121.125 C-56 118 -56 118 -55 116 C-54.34 116 -53.68 116 -53 116 C-52.88785156 115.44828125 -52.77570313 114.8965625 -52.66015625 114.328125 C-51.88639227 111.59934789 -50.73182306 109.27227057 -49.4375 106.75 C-48.98246094 105.85796875 -48.52742188 104.9659375 -48.05859375 104.046875 C-47.70925781 103.37140625 -47.35992187 102.6959375 -47 102 C-46.34 102 -45.68 102 -45 102 C-45 100.68 -45 99.36 -45 98 C-44.34 98 -43.68 98 -43 98 C-43 97.01 -43 96.02 -43 95 C-42.34 95 -41.68 95 -41 95 C-40.855625 94.21625 -40.71125 93.4325 -40.5625 92.625 C-40 90 -40 90 -39 88 C-38.34 88 -37.68 88 -37 88 C-37 86.35 -37 84.7 -37 83 C-36.34 83 -35.68 83 -35 83 C-35 82.01 -35 81.02 -35 80 C-34.34 80 -33.68 80 -33 80 C-33 78.35 -33 76.7 -33 75 C-32.34 75 -31.68 75 -31 75 C-31 74.34 -31 73.68 -31 73 C-30.34 73 -29.68 73 -29 73 C-29 71.35 -29 69.7 -29 68 C-28.34 68 -27.68 68 -27 68 C-27 67.01 -27 66.02 -27 65 C-26.34 65 -25.68 65 -25 65 C-25 63.35 -25 61.7 -25 60 C-23.68 59.67 -22.36 59.34 -21 59 C-21 57.02 -21 55.04 -21 53 C-20.34 53 -19.68 53 -19 53 C-19 52.34 -19 51.68 -19 51 C-18.34 51 -17.68 51 -17 51 C-17 49.35 -17 47.7 -17 46 C-16.34 46 -15.68 46 -15 46 C-14.731875 44.906875 -14.46375 43.81375 -14.1875 42.6875 C-13.00292127 39.0090713 -12.54345016 38.49991923 -10 36 C-7.43165662 31.90052884 -5.07876728 27.89041483 -4.875 23 C-6.28716707 19.23422114 -8.04545258 15.71671756 -9.94140625 12.171875 C-11 10 -11 10 -11 8 C-11.66 8 -12.32 8 -13 8 C-12.9375 5.75 -12.9375 5.75 -12 3 C-8.24091059 -0.2626059 -4.8628382 -1.7683048 0 0 Z " fill="#3F4B23" transform="translate(509,417)"/>
<path d="M0 0 C2.97 0.495 2.97 0.495 6 1 C6 1.66 6 2.32 6 3 C7.65 3.33 9.3 3.66 11 4 C11.1875 6.8125 11.1875 6.8125 11 10 C9.6875 11.5 9.6875 11.5 8 13 C7.484375 14.03125 6.96875 15.0625 6.4375 16.125 C5 19 5 19 3 20 C4.485 14.555 4.485 14.555 6 9 C6.66 9 7.32 9 8 9 C6.75453595 5.26360784 5.36595047 4.81243487 2 3 C2 3.99 2 4.98 2 6 C1.34 6 0.68 6 0 6 C-0.33 6.99 -0.66 7.98 -1 9 C-1.66 9 -2.32 9 -3 9 C-3 10.32 -3 11.64 -3 13 C-4.32 13 -5.64 13 -7 13 C-7.33 11.35 -7.66 9.7 -8 8 C-7.34 8 -6.68 8 -6 8 C-6 8.99 -6 9.98 -6 11 C-5.34 11 -4.68 11 -4 11 C-4 10.01 -4 9.02 -4 8 C-3.34 8 -2.68 8 -2 8 C-2 6.68 -2 5.36 -2 4 C-1.34 4 -0.68 4 0 4 C0 2.68 0 1.36 0 0 Z " fill="#8C8A6C" transform="translate(517,416)"/>
<path d="M0 0 C0.66 0 1.32 0 2 0 C2 1.32 2 2.64 2 4 C1.34 4 0.68 4 0 4 C0.103125 4.99 0.20625 5.98 0.3125 7 C0.32223565 11.78020496 -1.90684161 15.45914763 -5 19 C-6.32445333 19.68413858 -7.6567445 20.35355829 -9 21 C-9.80528889 23.05000871 -9.80528889 23.05000871 -10 25 C-10.99 25 -11.98 25 -13 25 C-12.67 23.35 -12.34 21.7 -12 20 C-11.34 20 -10.68 20 -10 20 C-9.855625 19.401875 -9.71125 18.80375 -9.5625 18.1875 C-9.1127561 16.43849596 -8.57107659 14.71322977 -8 13 C-7.34 13 -6.68 13 -6 13 C-6 11.68 -6 10.36 -6 9 C-5.34 9 -4.68 9 -4 9 C-4 7.68 -4 6.36 -4 5 C-3.34 5 -2.68 5 -2 5 C-1.34 3.35 -0.68 1.7 0 0 Z " fill="#4D5533" transform="translate(441,557)"/>
<path d="M0 0 C0.99 0 1.98 0 3 0 C3.33 1.65 3.66 3.3 4 5 C4.66 5 5.32 5 6 5 C6 6.65 6 8.3 6 10 C6.66 10 7.32 10 8 10 C8.12117187 10.63808594 8.24234375 11.27617188 8.3671875 11.93359375 C8.53476562 12.75988281 8.70234375 13.58617187 8.875 14.4375 C9.11863281 15.67306641 9.11863281 15.67306641 9.3671875 16.93359375 C9.57601562 17.61550781 9.78484375 18.29742188 10 19 C10.66 19.33 11.32 19.66 12 20 C12 21.98 12 23.96 12 26 C11.34 26 10.68 26 10 26 C10 25.01 10 24.02 10 23 C9.34 23 8.68 23 8 23 C8 21.02 8 19.04 8 17 C7.34 17 6.68 17 6 17 C4.39644899 13.49223216 3.77963136 10.85645121 4 7 C3.34 7 2.68 7 2 7 C1.34 4.69 0.68 2.38 0 0 Z " fill="#858066" transform="translate(511,576)"/>
<path d="M0 0 C1.33332095 2.6666419 0.67102033 4.16680303 0 7 C-0.66 7 -1.32 7 -2 7 C-2 7.66 -2 8.32 -2 9 C-2.66 9 -3.32 9 -4 9 C-4 10.98 -4 12.96 -4 15 C-4.804375 15.2475 -5.60875 15.495 -6.4375 15.75 C-9.15311231 16.71114717 -9.15311231 16.71114717 -9.75 19 C-9.8325 19.66 -9.915 20.32 -10 21 C-10.33 21.66 -10.66 22.32 -11 23 C-11.66 23 -12.32 23 -13 23 C-11.125 17.25 -11.125 17.25 -10 15 C-9.34 15 -8.68 15 -8 15 C-7.88527344 14.44699219 -7.77054687 13.89398437 -7.65234375 13.32421875 C-6.8978634 10.63610013 -5.80634915 8.31127113 -4.5625 5.8125 C-3.91474609 4.49185547 -3.91474609 4.49185547 -3.25390625 3.14453125 C-2 1 -2 1 0 0 Z " fill="#737858" transform="translate(464,518)"/>
<path d="M0 0 C0.66 0 1.32 0 2 0 C1.01534714 3.67006974 -0.20741644 6.44834975 -2.5 9.4375 C-5.07974013 12.84671409 -6.06750728 15.8461688 -7 20 C-7.66 20 -8.32 20 -9 20 C-9 20.66 -9 21.32 -9 22 C-9.99 21.67 -10.98 21.34 -12 21 C-11.62488281 20.39414062 -11.24976563 19.78828125 -10.86328125 19.1640625 C-7.62793652 13.86689859 -4.67599778 8.5252899 -1.98046875 2.93359375 C-1 1 -1 1 0 0 Z " fill="#878A71" transform="translate(426,584)"/>
<path d="M0 0 C0.33 0.66 0.66 1.32 1 2 C1.66 2 2.32 2 3 2 C3 3.32 3 4.64 3 6 C3.66 6 4.32 6 5 6 C6.4606285 8.64738916 7 9.89448334 7 13 C7.66 13 8.32 13 9 13 C9.99 15.31 10.98 17.62 12 20 C8.13322435 18.533292 6.99014441 16.52798328 5 13 C4.34 12.67 3.68 12.34 3 12 C3 10.68 3 9.36 3 8 C2.34 8 1.68 8 1 8 C0.67 5.36 0.34 2.72 0 0 Z " fill="#8F9170" transform="translate(594,578)"/>
<path d="M0 0 C2.5 2.25 2.5 2.25 5 5 C5 6.32 5 7.64 5 9 C5.66 9 6.32 9 7 9 C10.22265625 14.17578125 10.22265625 14.17578125 11 16 C10.67 16.99 10.34 17.98 10 19 C8.5 17.625 8.5 17.625 7 16 C7 15.34 7 14.68 7 14 C6.34 14 5.68 14 5 14 C3.74335022 11.09399739 3 9.20395416 3 6 C2.34 6 1.68 6 1 6 C0.67 4.02 0.34 2.04 0 0 Z " fill="#79805F" transform="translate(555,510)"/>
<path d="M0 0 C0.66 0 1.32 0 2 0 C2 1.32 2 2.64 2 4 C1.34 4 0.68 4 0 4 C0 5.32 0 6.64 0 8 C-0.66 8 -1.32 8 -2 8 C-2 8.99 -2 9.98 -2 11 C-2.66 11 -3.32 11 -4 11 C-4 11.66 -4 12.32 -4 13 C-4.66 13 -5.32 13 -6 13 C-6 11.68 -6 10.36 -6 9 C-5.34 9 -4.68 9 -4 9 C-4 7.68 -4 6.36 -4 5 C-3.34 5 -2.68 5 -2 5 C-1.34 3.35 -0.68 1.7 0 0 Z " fill="#74795A" transform="translate(441,557)"/>
<path d="M0 0 C0.66 0 1.32 0 2 0 C2 0.99 2 1.98 2 3 C3.32 3 4.64 3 6 3 C6 5.97 6 8.94 6 12 C5.34 12 4.68 12 4 12 C3.01 9.69 2.02 7.38 1 5 C0.67 5 0.34 5 0 5 C0 3.35 0 1.7 0 0 Z " fill="#7A7F64" transform="translate(400,607)"/>
<path d="M0 0 C0.66 0 1.32 0 2 0 C1.34 2.97 0.68 5.94 0 9 C-0.66 9 -1.32 9 -2 9 C-2.33 9.99 -2.66 10.98 -3 12 C-3.66 11.67 -4.32 11.34 -5 11 C-5.625 8.9375 -5.625 8.9375 -6 7 C-4.68 7 -3.36 7 -2 7 C-1.855625 6.21625 -1.71125 5.4325 -1.5625 4.625 C-1 2 -1 2 0 0 Z " fill="#7B805B" transform="translate(620,611)"/>
<path d="M0 0 C1.32 0 2.64 0 4 0 C4 0.99 4 1.98 4 3 C3.34 3 2.68 3 2 3 C2 4.98 2 6.96 2 9 C1.01 9.33 0.02 9.66 -1 10 C-1.66 9.34 -2.32 8.68 -3 8 C-2.67 7.01 -2.34 6.02 -2 5 C-1.34 5 -0.68 5 0 5 C0 3.35 0 1.7 0 0 Z " fill="#747B55" transform="translate(484,477)"/>
<path d="M0 0 C0.66 0 1.32 0 2 0 C2 1.98 2 3.96 2 6 C0.02 6.99 0.02 6.99 -2 8 C-2 9.65 -2 11.3 -2 13 C-2.66 13 -3.32 13 -4 13 C-4 11.02 -4 9.04 -4 7 C-3.34 7 -2.68 7 -2 7 C-2 6.34 -2 5.68 -2 5 C-1.34 5 -0.68 5 0 5 C0 3.35 0 1.7 0 0 Z " fill="#95866C" transform="translate(492,463)"/>
<path d="M0 0 C0.66 0.33 1.32 0.66 2 1 C1.835 2.093125 1.67 3.18625 1.5 4.3125 C0.93281816 7.87525873 0.93281816 7.87525873 1 11 C0.01 11 -0.98 11 -2 11 C-2 7.7 -2 4.4 -2 1 C-1.34 0.67 -0.68 0.34 0 0 Z " fill="#656B47" transform="translate(519,435)"/>
<path d="M0 0 C1.70840281 1.63412443 2.93453047 2.86906094 4 5 C5.32 4.34 6.64 3.68 8 3 C7.67 4.65 7.34 6.3 7 8 C6.01 8.33 5.02 8.66 4 9 C0 4.5 0 4.5 0 0 Z " fill="#888A5C" transform="translate(606,600)"/>
<path d="M0 0 C0.99 0 1.98 0 3 0 C3.185625 0.9590625 3.185625 0.9590625 3.375 1.9375 C3.684375 2.9584375 3.684375 2.9584375 4 4 C4.66 4.33 5.32 4.66 6 5 C6 6.98 6 8.96 6 11 C5.34 11 4.68 11 4 11 C4 10.01 4 9.02 4 8 C3.34 8 2.68 8 2 8 C2 6.02 2 4.04 2 2 C1.34 2 0.68 2 0 2 C0 1.34 0 0.68 0 0 Z " fill="#676A46" transform="translate(517,591)"/>
<path d="M0 0 C0.66 0 1.32 0 2 0 C2.66 1.98 3.32 3.96 4 6 C4.66 6 5.32 6 6 6 C6 7.65 6 9.3 6 11 C5.34 11 4.68 11 4 11 C2.5393715 8.35261084 2 7.10551666 2 4 C1.34 4 0.68 4 0 4 C0 2.68 0 1.36 0 0 Z " fill="#808462" transform="translate(526,457)"/>
<path d="M0 0 C1.32 0.33 2.64 0.66 4 1 C4.33 3.64 4.66 6.28 5 9 C4.01 9 3.02 9 2 9 C1.34 6.03 0.68 3.06 0 0 Z " fill="#5C6147" transform="translate(409,602)"/>
<path d="M0 0 C2.4375 0.75 2.4375 0.75 5 2 C5.8125 4.125 5.8125 4.125 6 6 C5.34 6 4.68 6 4 6 C3.67 5.34 3.34 4.68 3 4 C2.34 4 1.68 4 1 4 C0.67 4.66 0.34 5.32 0 6 C-0.66 6 -1.32 6 -2 6 C-2 5.01 -2 4.02 -2 3 C-1.34 3 -0.68 3 0 3 C0 2.01 0 1.02 0 0 Z " fill="#2E3A15" transform="translate(519,419)"/>
<path d="M0 0 C0.33 0.66 0.66 1.32 1 2 C1.66 2 2.32 2 3 2 C3 3.32 3 4.64 3 6 C3.66 6 4.32 6 5 6 C4.67 7.98 4.34 9.96 4 12 C3.67 10.68 3.34 9.36 3 8 C2.34 8 1.68 8 1 8 C0.67 5.36 0.34 2.72 0 0 Z " fill="#767C51" transform="translate(594,578)"/>
<path d="M0 0 C0.66 0 1.32 0 2 0 C2 0.66 2 1.32 2 2 C2.66 2 3.32 2 4 2 C4 2.99 4 3.98 4 5 C4.66 5 5.32 5 6 5 C6 6.65 6 8.3 6 10 C3.49962266 7.82575883 2.56371414 6.26954202 2 3 C1.34 3 0.68 3 0 3 C0 2.01 0 1.02 0 0 Z " fill="#8D8E78" transform="translate(496,422)"/>
<path d="M0 0 C-0.33 1.32 -0.66 2.64 -1 4 C-1 3.01 -1 2.02 -1 1 C-1.66 1 -2.32 1 -3 1 C-3.33 2.32 -3.66 3.64 -4 5 C-4.66 5 -5.32 5 -6 5 C-6 3.35 -6 1.7 -6 0 C-3.50907189 -1.24546405 -2.58919267 -0.7767578 0 0 Z " fill="#303920" transform="translate(628,600)"/>
<path d="M0 0 C1.33332095 2.6666419 0.67102033 4.16680303 0 7 C-0.66 7 -1.32 7 -2 7 C-2 7.66 -2 8.32 -2 9 C-2.66 8.67 -3.32 8.34 -4 8 C-3.50168276 4.31245243 -2.89932357 2.39509338 0 0 Z " fill="#6C6B45" transform="translate(464,518)"/>
<path d="M0 0 C2.31 0.33 4.62 0.66 7 1 C7.33 1.99 7.66 2.98 8 4 C7.34 4 6.68 4 6 4 C6 3.34 6 2.68 6 2 C4.35 2 2.7 2 1 2 C1 2.99 1 3.98 1 5 C0.34 5 -0.32 5 -1 5 C-0.67 3.35 -0.34 1.7 0 0 Z " fill="#8D916A" transform="translate(616,596)"/>
<path d="M0 0 C0.99 0.495 0.99 0.495 2 1 C2 1.66 2 2.32 2 3 C2.66 3 3.32 3 4 3 C4 3.99 4 4.98 4 6 C3.34 6 2.68 6 2 6 C2 6.99 2 7.98 2 9 C1.34 9 0.68 9 0 9 C0 6.03 0 3.06 0 0 Z " fill="#2F3A1B" transform="translate(476,492)"/>
<path d="M0 0 C0.66 0 1.32 0 2 0 C2 2.97 2 5.94 2 9 C1.34 8.67 0.68 8.34 0 8 C0 7.34 0 6.68 0 6 C-0.66 6 -1.32 6 -2 6 C-2 5.01 -2 4.02 -2 3 C-1.34 3 -0.68 3 0 3 C0 2.01 0 1.02 0 0 Z " fill="#2B3618" transform="translate(546,492)"/>
<path d="M0 0 C0.99 0.33 1.98 0.66 3 1 C2.67 2.32 2.34 3.64 2 5 C1.34 5 0.68 5 0 5 C0 5.66 0 6.32 0 7 C-0.99 6.67 -1.98 6.34 -3 6 C-2.01 4.02 -1.02 2.04 0 0 Z " fill="#6D7249" transform="translate(417,599)"/>
<path d="M0 0 C1.98 0 3.96 0 6 0 C5.67 1.32 5.34 2.64 5 4 C5 3.01 5 2.02 5 1 C4.01 1 3.02 1 2 1 C2.33 1.99 2.66 2.98 3 4 C2.67 4.66 2.34 5.32 2 6 C1.34 6 0.68 6 0 6 C0 4.02 0 2.04 0 0 Z " fill="#5D6341" transform="translate(509,575)"/>
<path d="M0 0 C2.5 2.25 2.5 2.25 5 5 C5 6.32 5 7.64 5 9 C4.34 9 3.68 9 3 9 C3 8.01 3 7.02 3 6 C2.34 6 1.68 6 1 6 C0.67 4.02 0.34 2.04 0 0 Z " fill="#8B8B6D" transform="translate(555,510)"/>
<path d="M0 0 C0.99 0.33 1.98 0.66 3 1 C3.33 2.98 3.66 4.96 4 7 C3.01 7 2.02 7 1 7 C0.67 4.69 0.34 2.38 0 0 Z " fill="#8B9171" transform="translate(520,447)"/>
<path d="M0 0 C1.98 0.99 1.98 0.99 4 2 C4 4.97 4 7.94 4 11 C3.34 11 2.68 11 2 11 C2.04125 10.113125 2.0825 9.22625 2.125 8.3125 C2.00102754 5.02722987 1.38612096 2.94550705 0 0 Z " fill="#A8A78D" transform="translate(502,434)"/>
<path d="M0 0 C0.66 0 1.32 0 2 0 C3.4606285 2.64738916 4 3.89448334 4 7 C2.68 6.67 1.36 6.34 0 6 C0 4.02 0 2.04 0 0 Z " fill="#757856" transform="translate(527,613)"/>
<path d="M0 0 C0.33 0 0.66 0 1 0 C1 1.65 1 3.3 1 5 C0.34 5 -0.32 5 -1 5 C-1 5.66 -1 6.32 -1 7 C-1.66 7 -2.32 7 -3 7 C-3 5.68 -3 4.36 -3 3 C-2.34 3 -1.68 3 -1 3 C-0.67 2.01 -0.34 1.02 0 0 Z " fill="#72765E" transform="translate(496,613)"/>
<path d="M0 0 C1.65 0 3.3 0 5 0 C5 0.99 5 1.98 5 3 C3.35 3.33 1.7 3.66 0 4 C0 2.68 0 1.36 0 0 Z " fill="#38451E" transform="translate(617,598)"/>
<path d="M0 0 C0.97608217 2.92824652 1.08226668 4.95613276 1 8 C0.34 7.67 -0.32 7.34 -1 7 C-1 6.34 -1 5.68 -1 5 C-1.66 5 -2.32 5 -3 5 C-1.125 1.125 -1.125 1.125 0 0 Z " fill="#323D1E" transform="translate(592,573)"/>
<path d="M0 0 C1.43088528 2.86177057 0.59991697 4.93375773 0 8 C-0.66 8 -1.32 8 -2 8 C-2.93423645 4.98968256 -3.04449911 4.13349732 -2 1 C-1.34 0.67 -0.68 0.34 0 0 Z " fill="#647041" transform="translate(476,496)"/>
<path d="M0 0 C0.99 0 1.98 0 3 0 C3 1.32 3 2.64 3 4 C2.01 4 1.02 4 0 4 C0 4.66 0 5.32 0 6 C-0.66 6 -1.32 6 -2 6 C-1.34 4.02 -0.68 2.04 0 0 Z " fill="#838567" transform="translate(496,457)"/>
<path d="M0 0 C0.33 0.66 0.66 1.32 1 2 C0.0625 4.125 0.0625 4.125 -1 6 C-2.65 5.67 -4.3 5.34 -6 5 C-4.62308038 2.24616077 -2.63279958 1.48516899 0 0 Z " fill="#3A3C28" transform="translate(502,417)"/>
<path d="M0 0 C1.32 0.33 2.64 0.66 4 1 C4 2.98 4 4.96 4 7 C1.49962266 4.82575883 0.56371414 3.26954202 0 0 Z " fill="#9A8D6F" transform="translate(505,416)"/>
<path d="" fill="#000000" transform="translate(0,0)"/>
<path d="" fill="#000000" transform="translate(0,0)"/>
<path d="" fill="#000000" transform="translate(0,0)"/>
<path d="" fill="#000000" transform="translate(0,0)"/>
<path d="" fill="#000000" transform="translate(0,0)"/>
<path d="" fill="#000000" transform="translate(0,0)"/>
<path d="" fill="#000000" transform="translate(0,0)"/>
<path d="" fill="#000000" transform="translate(0,0)"/>
<path d="" fill="#000000" transform="translate(0,0)"/>
<path d="" fill="#000000" transform="translate(0,0)"/>
<path d="" fill="#000000" transform="translate(0,0)"/>
<path d="" fill="#000000" transform="translate(0,0)"/>
<path d="" fill="#000000" transform="translate(0,0)"/>
<path d="" fill="#000000" transform="translate(0,0)"/>
<path d="" fill="#000000" transform="translate(0,0)"/>
<path d="" fill="#000000" transform="translate(0,0)"/>
<path d="" fill="#000000" transform="translate(0,0)"/>
<path d="" fill="#000000" transform="translate(0,0)"/>
<path d="" fill="#000000" transform="translate(0,0)"/>
<path d="" fill="#000000" transform="translate(0,0)"/>
<path d="" fill="#000000" transform="translate(0,0)"/>
<path d="" fill="#000000" transform="translate(0,0)"/>
<path d="" fill="#000000" transform="translate(0,0)"/>
<path d="" fill="#000000" transform="translate(0,0)"/>
<path d="" fill="#000000" transform="translate(0,0)"/>
<path d="" fill="#000000" transform="translate(0,0)"/>
<path d="" fill="#000000" transform="translate(0,0)"/>
<path d="" fill="#000000" transform="translate(0,0)"/>
<path d="" fill="#000000" transform="translate(0,0)"/>
<path d="" fill="#000000" transform="translate(0,0)"/>
</svg>
